<svg width="163" height="174" viewBox="0 0 163 174" fill="currentColor" xmlns="http://www.w3.org/2000/svg">
<path d="M81.5 87C94.1088 87 106.201 82.417 115.117 74.2591C124.033 66.1013 129.042 55.0369 129.042 43.5C129.042 31.9631 124.033 20.8987 115.117 12.7409C106.201 4.58302 94.1088 0 81.5 0C68.8912 0 56.7988 4.58302 47.883 12.7409C38.9672 20.8987 33.9583 31.9631 33.9583 43.5C33.9583 55.0369 38.9672 66.1013 47.883 74.2591C56.7988 82.417 68.8912 87 81.5 87ZM23.7708 99.4286C17.4664 99.4286 11.4202 101.72 6.96232 105.799C2.50442 109.878 0 115.41 0 121.179V124.286C0 139.157 10.3437 151.734 25.0273 160.285C39.7924 168.886 59.7803 174 81.5 174C103.22 174 123.201 168.886 137.973 160.285C152.656 151.734 163 139.157 163 124.286V121.179C163 115.41 160.496 109.878 156.038 105.799C151.58 101.72 145.534 99.4286 139.229 99.4286H23.7708Z" fill="#14213D"/>
</svg>
