<svg width="214" height="205" viewBox="0 0 214 205" fill="currentColor" xmlns="http://www.w3.org/2000/svg">
<path d="M108.299 45.3103C119.205 45.3103 128.045 36.2866 128.045 25.1552C128.045 14.0238 119.205 5 108.299 5C97.3931 5 88.5522 14.0238 88.5522 25.1552C88.5522 36.2866 97.3931 45.3103 108.299 45.3103Z" stroke="white" stroke-width="9" stroke-linecap="round" stroke-linejoin="round"/>
<path d="M145.687 80.8605L151.12 56.1505C154.519 40.6928 137.325 29.2426 124.753 38.5918" stroke="white" stroke-width="9" stroke-linecap="round" stroke-linejoin="round"/>
<path d="M68.7397 80.8616L63.6928 57.9096C60.065 41.4112 78.16 28.9937 91.8424 38.5924" stroke="white" stroke-width="9" stroke-linecap="round" stroke-linejoin="round"/>
<path d="M107.669 159.69C118.575 159.69 127.416 168.713 127.416 179.845C127.416 190.976 118.575 200 107.669 200C96.7635 200 87.9226 190.976 87.9226 179.845C87.9226 168.713 96.7635 159.69 107.669 159.69Z" stroke="white" stroke-width="9" stroke-linecap="round" stroke-linejoin="round"/>
<path d="M145.058 124.139L150.491 148.849C153.89 164.307 136.696 175.757 124.124 166.408" stroke="white" stroke-width="9" stroke-linecap="round" stroke-linejoin="round"/>
<path d="M68.1108 124.139L63.0639 147.091C59.4361 163.589 77.5311 176.006 91.2134 166.408" stroke="white" stroke-width="9" stroke-linecap="round" stroke-linejoin="round"/>
<path d="M169.507 103.962C169.507 115.093 178.348 124.117 189.253 124.117C200.159 124.117 209 115.093 209 103.962C209 92.8304 200.159 83.8067 189.253 83.8068C178.347 83.8069 169.507 92.8307 169.507 103.962Z" stroke="white" stroke-opacity="0.94" stroke-width="9" stroke-linecap="round" stroke-linejoin="round"/>
<path d="M134.676 142.125L158.697 147.627C173.869 151.103 185.225 133.558 176.088 120.758" stroke="white" stroke-opacity="0.94" stroke-width="9" stroke-linecap="round" stroke-linejoin="round"/>
<path d="M134.677 63.5864L156.964 58.4805C173.158 54.7707 185.469 73.2369 176.088 87.1669" stroke="white" stroke-opacity="0.94" stroke-width="9" stroke-linecap="round" stroke-linejoin="round"/>
<path d="M44.4933 103.962C44.4932 115.094 35.6523 124.117 24.7466 124.117C13.8408 124.117 5.00006 115.093 5.00012 103.962C5.00019 92.8305 13.8411 83.8068 24.7468 83.8068C35.6526 83.8069 44.4933 92.8307 44.4933 103.962Z" stroke="white" stroke-opacity="0.94" stroke-width="9" stroke-linecap="round" stroke-linejoin="round"/>
<path d="M79.3225 142.125L55.3016 147.627C40.1294 151.103 28.7735 133.558 37.9105 120.758" stroke="white" stroke-opacity="0.94" stroke-width="9" stroke-linecap="round" stroke-linejoin="round"/>
<path d="M79.3224 63.5862L57.0351 58.4803C40.8417 54.7705 28.5308 73.2367 37.9108 87.1668" stroke="white" stroke-opacity="0.94" stroke-width="9" stroke-linecap="round" stroke-linejoin="round"/>
<path d="M127.404 101.977C127.907 113.095 119.483 122.543 108.588 123.08C97.6936 123.617 88.4539 115.039 87.9509 103.922C87.4478 92.8038 95.872 83.3558 106.767 82.8188C117.662 82.2819 126.901 90.8593 127.404 101.977Z" stroke="white" stroke-width="9" stroke-linecap="round" stroke-linejoin="round"/>
</svg>
